<?xml version="1.0" standalone="no"?>
<!DOCTYPE svg PUBLIC "-//W3C//DTD SVG 20010904//EN"
 "http://www.w3.org/TR/2001/REC-SVG-20010904/DTD/svg10.dtd">
<svg version="1.0" xmlns="http://www.w3.org/2000/svg"
 width="30px" height="30px" viewBox="0 0 512.000000 512.000000"
 preserveAspectRatio="xMidYMid meet">

<g transform="translate(0.000000,512.000000) scale(0.100000,-0.100000)"
fill="#89CFD3" stroke="none">
<path d="M2378 5110 c-43 -13 -91 -46 -116 -80 -51 -69 -52 -77 -52 -602 0
-327 4 -504 11 -533 15 -57 76 -128 131 -150 91 -37 203 -13 264 57 59 67 59
65 59 628 0 509 0 515 -22 555 -56 105 -170 157 -275 125z"/>
<path d="M740 4431 c-72 -22 -128 -71 -154 -133 -22 -53 -20 -143 4 -192 28
-59 722 -750 774 -771 50 -21 132 -21 182 0 110 46 167 171 129 286 -16 50
-43 80 -384 421 -349 349 -369 367 -420 382 -59 17 -91 19 -131 7z"/>
<path d="M4015 4425 c-22 -8 -42 -15 -44 -15 -3 0 -166 -161 -364 -357 -279
-278 -365 -369 -383 -408 -56 -118 -7 -252 111 -306 51 -24 145 -25 193 -2 58
26 736 705 767 767 34 68 33 135 -1 204 -30 61 -74 98 -140 118 -58 17 -88 17
-139 -1z"/>
<path d="M255 2771 c-148 -69 -182 -266 -64 -378 64 -61 79 -63 392 -63 l283
0 53 26 c168 84 168 324 0 408 l-53 26 -285 0 c-257 0 -290 -2 -326 -19z"/>
<path d="M3745 2771 c-148 -69 -182 -266 -64 -378 68 -64 55 -63 626 -63 483
0 521 2 558 19 83 38 135 120 135 211 0 91 -52 173 -135 211 -37 17 -74 19
-560 19 -486 0 -523 -2 -560 -19z"/>
<path d="M3335 1781 c-118 -54 -167 -188 -111 -306 18 -39 103 -129 377 -401
195 -194 368 -359 384 -367 49 -24 101 -30 155 -17 142 34 219 188 159 320
-26 59 -679 717 -754 761 -61 35 -146 39 -210 10z"/>
<path d="M2397 1389 c-21 -5 -51 -15 -66 -24 -44 -22 -98 -91 -110 -140 -7
-29 -11 -209 -11 -533 0 -525 1 -533 52 -603 77 -105 249 -116 340 -21 77 80
73 46 73 622 0 408 -3 523 -14 553 -36 104 -158 171 -264 146z"/>
</g>
</svg>
