<?xml version="1.0" standalone="no"?>
<!DOCTYPE svg PUBLIC "-//W3C//DTD SVG 20010904//EN"
 "http://www.w3.org/TR/2001/REC-SVG-20010904/DTD/svg10.dtd">
<svg version="1.0" xmlns="http://www.w3.org/2000/svg"
 width="50px" height="50px" viewBox="0 0 512.000000 512.000000"
 preserveAspectRatio="xMidYMid meet">

<g transform="translate(0.000000,512.000000) scale(0.100000,-0.100000)"
fill="#6FB6BA" stroke="none">
<path d="M795 4425 c-49 -17 -90 -62 -104 -112 -15 -54 -15 -3453 0 -3508 14
-50 64 -100 114 -114 56 -15 3454 -15 3510 0 50 14 100 64 114 114 15 56 15
3454 0 3510 -14 50 -64 100 -114 114 -28 8 -541 11 -1760 11 -1456 -1 -1726
-3 -1760 -15z m3513 -117 c9 -9 12 -97 12 -335 l0 -323 -1760 0 -1760 0 0 323
c0 238 3 326 12 335 17 17 3479 17 3496 0z m12 -2126 c0 -1043 -3 -1361 -12
-1370 -17 -17 -3479 -17 -3496 0 -9 9 -12 327 -12 1370 l0 1358 1760 0 1760 0
0 -1358z"/>
<path d="M2700 4179 c-159 -67 -182 -275 -42 -374 39 -27 52 -30 116 -30 62 0
78 4 114 27 127 84 127 271 0 355 -45 30 -142 42 -188 22z m120 -114 c36 -19
50 -43 50 -87 0 -42 -20 -72 -59 -88 -62 -25 -131 20 -131 85 0 46 13 71 48
89 35 19 56 20 92 1z"/>
<path d="M3264 4165 c-82 -41 -119 -108 -112 -204 5 -78 41 -131 111 -166 207
-103 406 149 254 322 -65 74 -163 93 -253 48z m154 -108 c8 -6 21 -27 29 -44
11 -28 11 -38 0 -65 -19 -46 -43 -63 -89 -63 -33 0 -46 7 -69 33 -18 20 -29
44 -29 61 0 32 32 78 64 92 25 10 73 4 94 -14z"/>
<path d="M3855 4171 c-128 -58 -164 -223 -72 -328 90 -102 256 -93 333 19 26
37 29 50 29 118 0 68 -3 81 -29 118 -56 81 -172 114 -261 73z m158 -131 c36
-40 35 -80 -2 -122 -23 -26 -36 -33 -69 -33 -46 0 -70 17 -89 63 -12 30 -12
38 4 70 34 69 104 78 156 22z"/>
<path d="M1453 3296 c-200 -49 -355 -214 -399 -426 -48 -232 89 -575 361 -898
192 -229 453 -422 571 -422 50 0 147 48 250 126 77 57 257 229 323 308 18 21
33 37 35 35 1 -2 42 -146 90 -319 55 -200 93 -320 103 -327 34 -26 57 -13 172
102 l116 114 161 -159 c91 -91 168 -160 179 -160 10 0 81 62 162 142 109 108
143 148 143 167 0 20 -37 63 -157 183 l-158 158 113 113 c121 121 136 151 90
181 -13 8 -184 59 -381 114 -197 55 -360 102 -363 105 -2 2 9 44 25 93 73 218
57 393 -50 554 -52 77 -117 132 -204 174 -202 98 -432 66 -596 -82 l-49 -44
-49 44 c-60 55 -149 103 -226 123 -70 18 -189 18 -262 1z m209 -107 c108 -23
225 -102 279 -188 11 -18 24 -24 49 -24 25 0 38 6 49 24 30 48 118 126 172
152 235 115 515 -6 590 -256 18 -57 21 -85 16 -156 -5 -82 -34 -196 -63 -252
l-13 -27 -102 30 c-175 51 -187 35 -129 -170 22 -78 40 -149 40 -157 0 -24
-166 -210 -269 -302 -96 -86 -211 -168 -269 -192 -28 -12 -36 -10 -94 18 -225
107 -523 439 -668 743 -88 186 -111 338 -71 469 64 205 276 331 483 288z
m1388 -930 c223 -62 407 -114 409 -116 3 -2 -39 -47 -92 -101 -70 -70 -97
-104 -97 -122 0 -19 39 -64 157 -182 l158 -158 -85 -85 -84 -85 -161 160 c-90
90 -169 160 -180 160 -10 0 -64 -46 -121 -101 l-102 -101 -21 68 c-11 38 -59
209 -106 379 -47 171 -92 332 -100 358 -13 45 -13 48 3 43 9 -3 199 -55 422
-117z"/>
</g>
</svg>
