<?xml version="1.0" standalone="no"?>
<!DOCTYPE svg PUBLIC "-//W3C//DTD SVG 20010904//EN"
 "http://www.w3.org/TR/2001/REC-SVG-20010904/DTD/svg10.dtd">
<svg version="1.0" xmlns="http://www.w3.org/2000/svg"
 width="50px" height="50px" viewBox="0 0 512.000000 512.000000"
 preserveAspectRatio="xMidYMid meet">

<g transform="translate(0.000000,512.000000) scale(0.100000,-0.100000)"
fill="#6FB6BA" stroke="none">
<path d="M2487 4430 c-141 -36 -236 -153 -245 -302 l-5 -78 -119 0 c-78 0
-130 -5 -151 -14 -59 -25 -107 -93 -107 -151 l0 -24 -285 -3 -285 -3 -32 -33
-33 -32 -3 -1529 -2 -1528 21 -27 20 -26 1295 0 1295 0 25 25 24 24 -2 1530
-3 1531 -33 32 -32 33 -285 3 -285 3 0 24 c0 58 -48 126 -107 151 -21 9 -73
14 -151 14 l-119 0 -5 78 c-5 90 -34 155 -95 216 -71 72 -200 110 -296 86z
m159 -126 c46 -22 100 -85 113 -131 6 -21 11 -75 11 -120 0 -115 -3 -113 178
-113 200 0 192 7 192 -161 l0 -129 -580 0 -580 0 0 129 c0 168 -8 161 192 161
181 0 178 -2 178 113 0 45 5 99 11 120 12 45 66 108 112 131 41 20 130 20 173
0z m-786 -637 c0 -59 5 -89 16 -105 l15 -22 669 0 669 0 15 22 c11 16 16 46
16 105 l0 83 260 0 260 0 0 -1475 0 -1475 -1220 0 -1220 0 0 1475 0 1475 260
0 260 0 0 -83z"/>
<path d="M1620 3287 c-19 -7 -44 -27 -57 -46 -22 -32 -23 -43 -23 -226 0 -183
1 -194 23 -226 36 -53 74 -61 282 -57 261 4 255 -2 255 283 0 286 7 279 -260
282 -127 2 -196 -1 -220 -10z m370 -272 l0 -165 -165 0 -165 0 0 165 0 165
165 0 165 0 0 -165z"/>
<path d="M2306 3218 c-21 -30 -20 -44 4 -68 19 -19 33 -20 353 -20 311 0 335
1 350 18 19 21 21 45 7 73 -10 18 -25 19 -355 19 l-344 0 -15 -22z"/>
<path d="M2310 2880 c-24 -24 -25 -38 -4 -68 l15 -22 614 0 614 0 15 22 c21
30 20 44 -4 68 -20 20 -33 20 -625 20 -592 0 -605 0 -625 -20z"/>
<path d="M1592 2424 c-46 -32 -52 -60 -52 -261 0 -207 4 -223 59 -260 32 -22
43 -23 218 -23 290 0 283 -7 283 283 l0 209 -34 34 -34 34 -209 0 c-173 0
-212 -3 -231 -16z m398 -259 l0 -165 -165 0 -165 0 0 165 0 165 165 0 165 0 0
-165z"/>
<path d="M2306 2338 c-21 -30 -20 -44 4 -68 19 -19 33 -20 353 -20 311 0 335
1 350 18 21 23 22 56 1 76 -13 14 -60 16 -354 16 -339 0 -339 0 -354 -22z"/>
<path d="M2318 2008 c-30 -24 -31 -56 -4 -83 l25 -25 594 0 c586 0 595 0 621
21 31 24 33 52 6 79 -20 20 -33 20 -623 20 -467 0 -607 -3 -619 -12z"/>
<path d="M1594 1571 c-47 -29 -54 -63 -54 -263 0 -278 0 -278 285 -278 283 0
275 -8 275 283 l0 209 -34 34 -34 34 -203 0 c-183 0 -207 -2 -235 -19z m396
-261 l0 -170 -165 0 -165 0 0 170 0 170 165 0 165 0 0 -170z"/>
<path d="M2306 1118 c-21 -30 -20 -44 4 -68 20 -20 33 -20 625 -20 592 0 605
0 625 20 24 24 25 38 4 68 l-15 22 -614 0 -614 0 -15 -22z"/>
</g>
</svg>
