<?xml version="1.0" standalone="no"?>
<!DOCTYPE svg PUBLIC "-//W3C//DTD SVG 20010904//EN"
 "http://www.w3.org/TR/2001/REC-SVG-20010904/DTD/svg10.dtd">
<svg version="1.0" xmlns="http://www.w3.org/2000/svg"
 width="50px" height="50px" viewBox="0 0 512.000000 512.000000"
 preserveAspectRatio="xMidYMid meet">

<g transform="translate(0.000000,512.000000) scale(0.100000,-0.100000)"
fill="#6FB6BA" stroke="none">
<path d="M1564 4296 c-293 -48 -551 -215 -715 -465 -59 -90 -103 -193 -136
-320 -35 -133 -37 -335 -4 -501 99 -501 437 -1079 926 -1579 307 -315 617
-533 855 -602 l75 -21 82 31 c330 128 847 586 1215 1076 334 446 530 874 569
1243 53 507 -274 983 -766 1115 -346 93 -729 -5 -985 -253 -42 -41 -87 -88
-99 -104 l-21 -29 -21 29 c-48 63 -181 182 -264 233 -96 60 -226 113 -337 137
-101 21 -276 26 -374 10z m411 -135 c108 -32 261 -113 344 -183 41 -35 104
-101 139 -148 36 -47 71 -89 79 -93 28 -17 60 3 97 59 116 174 318 312 541
370 92 23 113 25 250 21 172 -5 236 -21 380 -90 262 -127 453 -381 504 -671
62 -345 -103 -826 -453 -1323 -342 -489 -819 -944 -1176 -1125 -104 -53 -144
-54 -248 -9 -471 205 -1095 868 -1411 1500 -211 420 -272 790 -179 1081 99
311 363 550 693 626 92 21 349 13 440 -15z"/>
<path d="M1625 3960 c-121 -18 -234 -67 -337 -146 -147 -114 -253 -320 -260
-507 -3 -58 0 -71 16 -83 54 -39 91 -3 99 97 24 278 251 506 526 527 82 6 111
23 111 66 0 49 -45 63 -155 46z"/>
</g>
</svg>
