<?xml version="1.0" standalone="no"?>
<!DOCTYPE svg PUBLIC "-//W3C//DTD SVG 20010904//EN"
 "http://www.w3.org/TR/2001/REC-SVG-20010904/DTD/svg10.dtd">
<svg version="1.0" xmlns="http://www.w3.org/2000/svg"
 width="50px" height="50px" viewBox="0 0 512.000000 512.000000"
 preserveAspectRatio="xMidYMid meet">

<g transform="translate(0.000000,512.000000) scale(0.100000,-0.100000)"
fill="#6FB6BA" stroke="none">
<path d="M1076 4265 c-197 -54 -357 -232 -386 -430 -7 -46 -10 -374 -8 -950
l3 -880 26 -71 c62 -168 175 -278 349 -336 62 -21 86 -22 505 -26 l440 -4 260
-362 c256 -355 261 -361 295 -361 34 0 39 6 295 361 l260 362 440 4 c480 6
488 6 601 67 122 65 204 160 253 295 l26 71 3 880 c2 576 -1 904 -8 950 -30
202 -189 377 -390 430 -79 21 -2888 21 -2964 0z m3001 -134 c88 -41 171 -123
211 -208 l27 -58 0 -935 0 -935 -28 -59 c-54 -117 -137 -190 -258 -227 -56
-17 -97 -19 -508 -19 l-448 0 -20 -22 c-12 -13 -125 -167 -252 -343 -127 -176
-236 -320 -241 -320 -5 0 -114 144 -241 320 -127 176 -240 330 -252 343 l-20
22 -448 0 c-411 0 -452 2 -508 19 -121 37 -204 110 -258 227 l-28 59 0 935 0
935 32 65 c56 113 157 196 278 226 39 10 362 12 1470 11 l1420 -2 72 -34z"/>
<path d="M2391 3795 c-201 -46 -341 -124 -477 -268 -387 -407 -298 -1068 185
-1365 161 -99 376 -147 557 -124 268 34 497 174 643 393 191 284 200 649 24
948 -47 80 -167 209 -247 266 -151 107 -298 155 -491 161 -91 3 -149 -1 -194
-11z m273 -105 c95 -14 208 -54 291 -102 90 -53 220 -183 273 -273 131 -224
142 -505 30 -730 -86 -171 -210 -292 -381 -370 -99 -45 -196 -65 -320 -65
-308 0 -572 171 -701 452 -50 109 -69 196 -69 318 1 226 83 414 247 567 91 84
161 127 270 164 132 46 235 57 360 39z"/>
<path d="M2100 3220 c-25 -25 -26 -52 -1 -74 15 -13 34 -16 87 -14 61 3 70 6
81 27 8 18 9 30 1 45 -16 31 -28 36 -90 36 -45 0 -63 -5 -78 -20z"/>
<path d="M2874 3232 c-24 -16 -33 -48 -21 -73 11 -21 20 -24 81 -27 73 -3 106
12 106 50 0 37 -36 58 -97 58 -32 0 -63 -4 -69 -8z"/>
<path d="M2235 2700 c-16 -17 -17 -25 -7 -58 26 -83 112 -167 209 -205 152
-60 332 -3 427 135 43 63 44 100 1 120 -34 15 -48 7 -94 -55 -57 -78 -125
-111 -220 -105 -93 5 -152 41 -202 123 -29 49 -41 61 -65 63 -20 2 -36 -4 -49
-18z"/>
</g>
</svg>
