<?xml version="1.0" standalone="no"?>
<!DOCTYPE svg PUBLIC "-//W3C//DTD SVG 20010904//EN"
 "http://www.w3.org/TR/2001/REC-SVG-20010904/DTD/svg10.dtd">
<svg version="1.0" xmlns="http://www.w3.org/2000/svg"
 width="512.000000pt" height="512.000000pt" viewBox="0 0 512.000000 512.000000"
 preserveAspectRatio="xMidYMid meet">

<g transform="translate(0.000000,512.000000) scale(0.100000,-0.100000)"
fill="#000000" stroke="none">
<path d="M1153 4149 c-233 -39 -426 -239 -463 -477 -7 -44 -10 -300 -8 -733
l3 -664 27 -74 c63 -173 186 -296 359 -359 l74 -27 880 -3 880 -3 425 -424
c234 -234 433 -425 443 -425 9 0 26 9 37 20 19 19 20 33 20 424 l0 403 73 7
c280 26 492 225 528 494 6 48 9 324 7 732 l-3 655 -27 74 c-65 177 -187 298
-368 363 l-65 23 -1385 1 c-762 1 -1408 -2 -1437 -7z m2910 -152 c98 -49 166
-116 215 -216 l37 -75 0 -721 0 -721 -37 -75 c-48 -97 -119 -169 -215 -216
-69 -34 -82 -37 -186 -41 -73 -3 -120 -9 -134 -18 l-23 -14 0 -373 0 -372
-385 385 -385 385 -908 5 -908 5 -75 37 c-98 48 -169 119 -217 217 l-37 75 0
720 0 721 36 76 c57 118 156 204 284 245 32 10 329 12 1451 11 l1410 -2 77
-38z"/>
<path d="M2970 3470 c-40 -40 -30 -54 190 -274 l210 -211 -210 -210 c-134
-134 -210 -218 -210 -231 0 -27 20 -50 48 -59 21 -6 50 19 238 206 l214 214
208 -206 c114 -114 216 -209 226 -213 29 -10 66 19 66 52 0 22 -39 66 -210
237 l-210 210 210 210 c169 169 210 215 210 237 0 28 -31 58 -59 58 -8 0 -111
-95 -228 -212 l-213 -212 -213 212 c-117 117 -221 212 -230 212 -9 0 -26 -9
-37 -20z"/>
<path d="M1918 3053 l-398 -398 -133 133 c-111 110 -139 132 -163 132 -37 0
-54 -16 -54 -49 0 -37 313 -351 350 -351 20 0 116 91 453 428 248 248 427 435
427 445 0 36 -19 57 -53 57 -29 0 -71 -39 -429 -397z"/>
</g>
</svg>
