<?xml version="1.0" standalone="no"?>
<!DOCTYPE svg PUBLIC "-//W3C//DTD SVG 20010904//EN"
 "http://www.w3.org/TR/2001/REC-SVG-20010904/DTD/svg10.dtd">
<svg version="1.0" xmlns="http://www.w3.org/2000/svg"
 width="50px" height="50px" viewBox="0 0 512.000000 512.000000"
 preserveAspectRatio="xMidYMid meet">

<g transform="translate(0.000000,512.000000) scale(0.100000,-0.100000)"
fill="#6FB6BA" stroke="none">
<path d="M2207 4340 c-163 -28 -301 -163 -336 -328 -7 -34 -11 -196 -11 -457
l0 -404 -433 -3 -433 -3 -76 -38 c-121 -59 -204 -167 -228 -296 -13 -71 -13
-1001 0 -1071 34 -179 176 -314 355 -340 39 -5 224 -10 413 -10 l342 0 0 -288
c0 -306 1 -313 49 -327 21 -6 59 28 335 304 l311 311 170 0 c94 0 199 5 234
10 171 24 314 159 350 328 7 34 11 196 11 457 l0 405 64 0 64 0 305 -310 c407
-414 385 -415 389 19 l3 292 66 22 c151 51 248 163 279 322 8 42 10 212 8 570
l-3 510 -26 63 c-49 116 -125 192 -241 241 l-63 26 -925 1 c-509 1 -947 -2
-973 -6z m1916 -126 c57 -19 140 -92 170 -148 22 -41 22 -46 25 -586 l3 -544
-31 -63 c-47 -95 -130 -153 -240 -168 -30 -4 -61 -12 -67 -17 -10 -8 -13 -74
-13 -267 l0 -256 -268 268 -267 267 -88 0 -87 0 0 38 c0 54 -26 147 -57 204
-36 67 -110 133 -191 171 l-67 32 -483 3 -483 3 3 437 c3 425 4 438 24 477 32
59 101 123 159 145 48 18 84 19 981 19 826 1 936 -1 977 -15z m-1162 -1200
c63 -29 120 -83 149 -141 l25 -48 0 -555 c0 -553 0 -555 -22 -596 -30 -56
-113 -129 -170 -148 -37 -13 -92 -16 -267 -16 l-220 0 -273 -272 -273 -273 0
257 c0 254 0 257 -22 272 -19 14 -78 16 -433 16 -481 0 -476 -1 -566 89 -92
92 -89 71 -89 680 l0 526 24 50 c43 93 105 147 196 172 34 9 260 11 970 10
922 -2 925 -2 971 -23z"/>
<path d="M2362 3698 c-47 -16 -122 -85 -143 -133 -40 -86 -12 -217 59 -277
112 -94 289 -69 364 53 96 155 -8 353 -191 365 -31 2 -71 -2 -89 -8z m164
-139 c62 -58 45 -167 -31 -203 -71 -34 -148 -2 -174 71 -17 47 -10 81 25 122
45 53 129 58 180 10z"/>
<path d="M3090 3701 c-159 -52 -227 -223 -144 -358 64 -103 195 -141 307 -90
179 82 182 338 5 428 -45 23 -129 33 -168 20z m152 -150 c37 -41 45 -89 22
-136 -45 -96 -178 -97 -227 -2 -65 127 110 244 205 138z"/>
<path d="M3800 3701 c-49 -15 -89 -41 -123 -81 -125 -146 -29 -374 164 -388
176 -13 296 139 248 313 -16 57 -101 138 -161 153 -52 13 -91 14 -128 3z m145
-141 c71 -67 49 -181 -41 -210 -103 -34 -202 65 -161 162 36 84 138 108 202
48z"/>
<path d="M1819 2947 c-58 -39 -71 -76 -64 -197 l5 -105 -68 -93 -67 -94 -151
1 -152 2 -29 -30 c-17 -16 -33 -44 -37 -62 -10 -53 -7 -571 4 -611 6 -22 23
-46 40 -58 28 -20 40 -21 177 -17 82 2 303 5 493 5 310 1 349 3 380 19 52 27
82 78 79 135 -2 31 2 53 13 65 30 35 40 65 37 116 -2 40 2 60 20 87 17 27 21
45 18 82 -3 33 0 52 10 60 50 41 56 147 12 195 -43 46 -75 53 -249 53 l-160 0
7 28 c4 15 7 65 7 112 -1 109 -28 182 -90 245 -79 82 -170 106 -235 62z m142
-130 c17 -18 40 -50 50 -72 23 -50 25 -158 4 -238 -19 -72 -19 -82 1 -101 13
-14 47 -16 213 -16 207 0 242 -7 228 -44 -5 -14 -25 -16 -142 -16 -140 0 -167
-6 -185 -40 -11 -21 1 -57 24 -72 6 -4 64 -8 129 -8 96 0 119 -3 123 -15 4 -8
1 -22 -6 -30 -10 -12 -39 -15 -141 -15 -103 0 -131 -3 -143 -16 -21 -20 -20
-53 1 -76 14 -15 32 -18 123 -18 112 0 140 -10 126 -45 -4 -12 -30 -15 -152
-15 -163 0 -184 -7 -184 -60 0 -46 22 -55 159 -60 118 -5 126 -6 126 -25 0
-20 -8 -20 -312 -23 l-312 -2 -7 37 c-4 20 -4 141 -2 269 l6 233 79 113 c44
62 86 124 93 138 13 24 17 201 5 220 -9 14 24 38 44 33 10 -3 34 -19 52 -36z
m-391 -747 l0 -280 -100 0 -100 0 0 280 0 280 100 0 100 0 0 -280z"/>
</g>
</svg>
